<svg id="Layer_1" data-name="Layer 1" xmlns="http://www.w3.org/2000/svg" xmlns:xlink="http://www.w3.org/1999/xlink" viewBox="0 0 3303.75 3344.5"><defs><style>.cls-1{stroke:#000;stroke-miterlimit:10;}.cls-2{fill:#c5c5c5;}</style></defs><title>spidey</title><polyline class="cls-1" points="1976.5 593.25 1987.5 616.25 1936 616.25"/><image width="4405" height="3929" transform="translate(0 397.75) scale(0.75)" xlink:href="spidey.png"/><path d="M1940.5,692.5l31-18v-52l20-35s-7-17-14-16,5-68,5-68l18-27-12-20-6-54,2-53,16-32v-32l-6-22,6-20v-29l-10-28,16-14,7-33-7-10-2-9,3-44h-47l-4,63-10,16v25l9,14-4,27,3,66-8,22-7,13v15l5,122-5,21-8,18v16l12,10-2,58-10,20v90Z" transform="translate(5 -76.25)"/><path d="M1939.54,692.5l.83-.48,30.88-17.94-.24.42,0-52v-.12l.06-.11,20-35,0,.4a56.15,56.15,0,0,0-5.44-9.95,21.19,21.19,0,0,0-3.72-4.17,7.89,7.89,0,0,0-2.33-1.37,4.65,4.65,0,0,0-1.27-.27,4.52,4.52,0,0,0-.64,0,2.7,2.7,0,0,1-.45,0,1.26,1.26,0,0,1-.5-.15,2.43,2.43,0,0,1-1-1.35,8.16,8.16,0,0,1-.4-1.46,22.18,22.18,0,0,1-.34-2.91c-.11-1.93-.09-3.85,0-5.77.13-3.83.44-7.65.8-11.46.74-7.61,1.73-15.2,2.81-22.76s2.27-15.12,3.57-22.66v-.09l.05-.07,18-27v.44l-12-20-.05-.08v-.09l-6-54v-.05l2-53v-.08l0-.07,16-32,0,.16v-32l0,.09-6-22,0-.09,0-.09,6-20V214.5l0,.1-10-28-.07-.19.15-.13,16-14-.09.16,7-33,0,.22-7-10,0,0v-.05l-2-9v-.08l3-44,.25.27h-47l.24-.22-4,63v.06l0,0-10,16,0-.11v25l0-.11,9,14,0,.06v.07l-4,27v0l3,66v.06l-8,22h0l-7,13v14.92l.08,2.14.7,17.13,1.39,34.24,2.78,68.5h0l-5,21h0l-8,18v16l0-.06,12,10,0,0v0l-2,58h0l-10,20v0l0,90h8Zm1.92,0h-10l0-90h0l10-20v0l2-58,0,0-12-10,0,0v-16h0l8-18h0l5-21v0L1941.57,391l-1.41-34.25-.71-17.12-.09-2.14V322.43l7-13v0l8-22v.06l-3-66v0l4-27,0,.13-9-14,0-.05V155.44l0-.05,10-16,0,.1,4-63,0-.23h47.49l0,.27-3,44v-.08l2,9,0-.1,7,10,.07.1,0,.12-7,33,0,.09-.07.07-16,14,.08-.32,10,28,0,0v29.14l-6,20v-.18l6,22,0,0v32.13l0,.08-16,32,0-.15-2,53v-.05l6,54-.06-.17,12,20,.13.22-.14.22-18,27,.06-.16q-1.92,11.3-3.54,22.64c-1.07,7.56-2,15.13-2.79,22.73-.35,3.8-.66,7.6-.78,11.4-.06,1.9-.08,3.81,0,5.69a23.35,23.35,0,0,0,.32,2.79,7.78,7.78,0,0,0,.36,1.3,1.7,1.7,0,0,0,.62.89c.15.06.17.06.45,0a4.17,4.17,0,0,1,.79,0,5.22,5.22,0,0,1,1.52.32,8.84,8.84,0,0,1,2.59,1.52,22,22,0,0,1,3.9,4.34,56.56,56.56,0,0,1,5.54,10.13l.09.2-.12.2-20,35,.06-.23,0,52v.28l-.24.14Z" transform="translate(5 -76.25)"/><polygon class="cls-2" points="1978.5 0.25 1992.5 0.25 1992.5 66.25 1973.5 77.25 1978.5 0.25"/><polygon class="cls-2" points="1966.5 85.25 1994.5 67.25 2000.5 67.25 2000.5 85.25 1983.5 107.25 1966.5 107.25 1966.5 85.25"/><polygon class="cls-2" points="1969.5 111.25 1978.5 111.25 1984.5 178.25 1977.5 209.25 1969.5 209.25 1969.5 111.25"/><polygon class="cls-2" points="1958.5 237.25 1976.5 219.25 1986.41 200.19 1989.5 194.25 1989.5 220.25 1983.5 237.25 1980.5 255.25 1973.5 266.25 1958.5 266.25 1962.5 247.25 1958.5 237.25"/><polygon class="cls-2" points="1963.5 269.25 1972.5 269.25 1972.5 362.25 1968.5 392.25 1958.5 392.25 1965.5 371.25 1965.5 307.25 1963.5 269.25"/><polygon class="cls-2" points="1958.5 401.25 1972.5 393.25 1988.5 397.25 1973.5 418.25 1953.5 432.25 1953.5 424.25 1958.5 401.25"/><polygon class="cls-2" points="1960.5 437.25 1969.5 426.25 1969.5 502.25 1967.5 505.25 1960.5 508.25 1960.5 463.25 1960.5 437.25"/><polygon class="cls-2" points="1953.5 515.25 1963.5 510.25 1971.5 505.25 1977.5 505.25 1980.5 510.25 1974.5 521.25 1966.5 536.25 1958.5 549.25 1948.5 549.25 1943.5 538.25 1943.5 527.25 1953.5 515.25"/><polygon class="cls-2" points="1949.02 557.51 1956.66 552.49 1959.7 572.17 1968.23 600.11 1972.8 614.75 1955.63 615.01 1952.73 596.27 1949.54 575.66 1949.02 557.51"/><path d="M1972.16,675.14a1.5,1.5,0,0,0,0-3,1.5,1.5,0,0,0,0,3Z" transform="translate(5 -76.25)"/><path d="M1970.27,673.71a44.47,44.47,0,0,0,3.69,9.85c1.74,3.32,4.44,6.23,5,10,.28,1.91,3.17,1.1,2.89-.79-.47-3.24-2.3-5.68-4-8.41a41.3,41.3,0,0,1-4.71-11.49c-.47-1.87-3.37-1.08-2.9.8Z" transform="translate(5 -76.25)"/><path d="M1942.05,692.67h3.89a16.89,16.89,0,0,0,3.26,0,2.11,2.11,0,0,0,1.71-1.48c.31-1.11-.53-1.9-.57-2.95a1.52,1.52,0,0,0-2.56-1.06,21.19,21.19,0,0,0-1.7,1.58c-1.35,1.39.77,3.51,2.12,2.12.54-.55,1.11-1.08,1.7-1.58l-2.56-1.06c0,.34.43,2.4.63,2.1l.89-.69a10.38,10.38,0,0,1-3.2.06h-3.61a1.5,1.5,0,0,0,0,3Z" transform="translate(5 -76.25)"/><path d="M1963.8,679.86c.41,2.06,1.4,4,1.89,6,.44,1.81.61,4.26,1.74,5.79a2.28,2.28,0,0,0,1.75,1c2.59.6,5.53.33,8.2.86a1.52,1.52,0,0,0,1.84-1.84c-.43-2.39-2.37-4.19-3.22-6.47-1.08-2.9-1.76-6-2.71-8.92-.61-1.9-2.47-4.92-4.37-2-.83,1.26-.46,2.93-.05,4.27.83,2.72,1.32,5.26,1.91,8,.39,1.83,1.74,7.18,4.59,4.55,1.06-1,.12-2.41-1.06-2.56a20,20,0,0,1-3.28-.51l1,1c-.57-1.58,0-3.53-.31-5.19-.25-1.26-.85-2.41-1.19-3.65-.46-1.62,0-4.72-2.37-5.06-5.42-.79-1.07,10-.79,11.82s3.18,1.1,2.89-.8a47.16,47.16,0,0,0-1.11-5.12c-.12-.44-1-4.41-2-2.22-.65,1.53,1.62,5.39,1.71,7,.07,1.37-.54,3.55.63,4.67s3.43.83,4.74,1l-1.06-2.56.43-.26,1.3.75c-1.47-2.12-1.41-5-1.89-7.44a10.69,10.69,0,0,0-1-3.36,1.75,1.75,0,0,0-1.73-1.62l.6,2c.76,2.5,1.39,5.09,2.33,7.53.77,2,2.62,3.82,3,5.9l1.84-1.85c-1.55-.31-3.1-.57-4.67-.73-1.87-.2-3.36.31-4.12-1.53a38.44,38.44,0,0,1-1.06-4.42c-.46-1.67-1.29-3.23-1.62-4.92-.38-1.89-3.27-1.09-2.9.8Z" transform="translate(5 -76.25)"/><path d="M1972,679.75a23.8,23.8,0,0,1,.43-5.58c.21-1.82-.47-3.59-.26-5.34l-3,.4.65,4.6a1.49,1.49,0,0,0,1.84,1,2.08,2.08,0,0,0,1.56-2,6.85,6.85,0,0,0-.58-1.74,18.25,18.25,0,0,1-.34-3c-.18-1.91-3.18-1.93-3,0,.09.93.14,1.87.27,2.8a19.26,19.26,0,0,1,.58,2l1-1-.33.14,1.84,1-.64-4.61c-.26-1.82-2.77-1.11-2.95.4-.23,1.93.49,3.74.19,5.74a19.58,19.58,0,0,0-.36,5.18c.23,1.89,3.23,1.91,3,0Z" transform="translate(5 -76.25)"/><path d="M1971.29,676.18c-.38,0,2.46,7.41,2.66,7.93a43.4,43.4,0,0,1,2.25,9.42l1.44-1.9c-2.06-.16-4.22.07-6.27-.15-1.4-.14-.66.15-1.2-.62-.14-.19-.47-1.24-.57-1.42-.69-1.26-2.92-.75-2.8.76.26,3.14,2.15,3.39,5,3.91,1.89.34,2.7-2.55.8-2.89-.47-.09-2.74-.19-2.81-1L1967,691c.74,1.36.3,2.74,2,3.48,1,.43,2.56,0,3.59,0,1.68,0,3.34,0,5,.18,1.08.08,1.58-1,1.45-1.9a61.25,61.25,0,0,0-3.87-13.36c-.88-2.32-.75-6.12-3.93-6.19-1.93,0-1.93,3,0,3Z" transform="translate(5 -76.25)"/><path d="M1931.55,691.39a5,5,0,0,1,.23.72l.15-1.15,0,.06.9-.69-.08,0h.71l.66.38.07.11a1.51,1.51,0,0,0-2.59,0,3.29,3.29,0,0,0,.16,3.28,1.54,1.54,0,0,0,2,.54,1.52,1.52,0,0,0,.54-2,1.28,1.28,0,0,1-.15-.25c.11.23,0-.16,0,0s0-.23,0,0,.11-.26,0,0h-2.59a1.73,1.73,0,0,0,2.54.6c.8-.64.64-1.52.36-2.37a1.54,1.54,0,0,0-1.85-1,1.52,1.52,0,0,0-1,1.84Z" transform="translate(5 -76.25)"/><path d="M1934.26,694.25l.61-1.07c1-1.71-1.47-3-2.59-1.52a4.64,4.64,0,0,0-.91,2.85,1.52,1.52,0,0,0,2.26,1.3c4.74-2.57,10.17-.75,15.33-1.39,2.23-.27,2.91-1.35,2.35-3.61-.47-1.87-3.36-1.08-2.9.8l.06.76,1-1c-3.09,1-7,.09-10.22,0a13.57,13.57,0,0,0-7.19,1.87l2.26,1.29.5-1.33-2.59-1.52-.61,1.07a1.5,1.5,0,0,0,2.59,1.52Z" transform="translate(5 -76.25)"/><path class="cls-2" d="M1951.06,690.35c.77,1.71.16,4.11.67,6a7.85,7.85,0,0,0,1.7,3.44c2,1.92,6.79,1,9.3.94s3.15-.67,3.26-3.14a6.7,6.7,0,0,1,.11-2.06c.18-.42.63-.49.86-.86a3.78,3.78,0,0,0,.58-2.77,1.49,1.49,0,0,0-1-1,15.23,15.23,0,0,0-4.1.06c-1.91.09-3.82-.07-5.72,0s-3.56.58-3.75,2.71c-.12,1.32.59,3.39,2.1,3.63,1.94.29,3.53-2.48,4.19-3.87.81-1.74-1.77-3.27-2.59-1.52-.76,1.6-1.44,3.21-2.07,4.86s1.9,2.59,2.74,1.15a18.85,18.85,0,0,1,2.17-3l-2.56-1.06c.25,2,.24,5,2.82,5.22,2.28.22,3.75-2,4.75-3.71l-2.8-.76-.13,1.58,2.74-.36c-1.27-3-2.69-4.21-5.25-1.39l2.51,1.46.25-.57-2.74-1.16c-.57,1.82-1.16,1.14-2.54,1.81a3.4,3.4,0,0,0-.67.38c.29-.23-1.76,2.23-1.14,2l1.69.69c-.11-.64-.2-1.28-.26-1.92a1.51,1.51,0,0,0-3-.4c0-.08-.87,2.37-.31,2.21l1.84,1a9.82,9.82,0,0,1,0-3.29h-3l-.3,1.86h2.89a9.68,9.68,0,0,1-.13-2.22c0-2-2.81-1.88-3,0l-.19,1.35,3,.4a4.19,4.19,0,0,1,.09-2.05l-2.94-.4,0,1.37h3a3.12,3.12,0,0,1,0-1.29h-3c-.09,2.2-.83,5.38-.15,7.47a1.56,1.56,0,0,0,1.85,1c1.5-.21,1.9-2.47,2.13-3.64l-2.94-.4,0,2.65c0,1.64,2.6,2.1,2.94.4a7.17,7.17,0,0,1,.54-1.94h-2.89c.15,1,.34,2,.59,3a1.52,1.52,0,0,0,2.9,0c.29-.87.56-1.74.82-2.62l-2.94-.4a14.34,14.34,0,0,0,.75,3.47,1.51,1.51,0,0,0,2.89,0,15.94,15.94,0,0,0,.62-2.35l-3-.4.28,2.38c.15,1.3,2.08,2.25,2.79.76.45-1,.85-1.91,1.21-2.91h-2.89a33.25,33.25,0,0,0,.9,4,1.53,1.53,0,0,0,1.85,1.05c2.06-.43,1.86-3.76,2-5.34h-3a13.28,13.28,0,0,0,.3,3.27c.31,1.56,2.44,1.29,2.89,0a31.8,31.8,0,0,0,1.07-3.85h-2.89a19,19,0,0,0,1.46,4.48,1.51,1.51,0,0,0,2.74-.35,16.58,16.58,0,0,0,.33-3l-2.94.4c.17.91.37,1.77.62,2.66a1.51,1.51,0,0,0,2.89,0,11.78,11.78,0,0,0,.59-4.45l-3,.39c.27,1,.56,1.92.9,2.87a1.51,1.51,0,0,0,3-.4c.26-2-.67-4.1-.15-6.09h-2.89a13.4,13.4,0,0,1,0,4.85,1.5,1.5,0,0,0,2.89.8c1.15-2.86-.48-6.21.61-8.9l-1,1.05-.2-.09c1.61,1.08,3.11-1.51,1.52-2.59a2.1,2.1,0,0,0-3.28,1.1c-1.08,2.62.6,5.89-.5,8.63l2.89.8a18.33,18.33,0,0,0,0-6.44c-.26-1.5-2.54-1.36-2.89,0-.61,2.35.34,4.52,0,6.88l2.94-.4c-.33-1-.63-1.89-.89-2.86a1.51,1.51,0,0,0-3,.4,9.6,9.6,0,0,1-.48,3.65H1965c-.25-.88-.45-1.75-.62-2.66-.32-1.7-2.91-1.24-2.95.4a7.63,7.63,0,0,1-.23,2.18l2.75-.36a15.5,15.5,0,0,1-1.16-3.77,1.51,1.51,0,0,0-2.89,0,32,32,0,0,1-1.07,3.86h2.89a7.17,7.17,0,0,1-.19-2.48c.07-2-2.77-1.86-3,0-.67,1-.62,1.86.15,2.45l1.85,1.05a34.19,34.19,0,0,1-.91-4c-.26-1.6-2.45-1.25-2.89,0a15.42,15.42,0,0,1-.91,2.18l2.8.76-.28-2.38c-.18-1.54-2.55-2.19-3-.4a15.91,15.91,0,0,1-.61,2.35h2.89a8.15,8.15,0,0,1-.64-2.67,1.51,1.51,0,0,0-3-.4c-.26.88-.54,1.75-.83,2.62h2.9c-.25-1-.45-2-.6-3-.23-1.61-2.45-1.23-2.89,0a7.27,7.27,0,0,0-.54,1.94l3,.4,0-2.65c0-1.64-2.62-2.11-3-.4a2.23,2.23,0,0,0,0,1.55l1.85,1c-.57-1.73.18-4.88.25-6.68.09-2-2.79-1.87-3,0a3.12,3.12,0,0,0,0,1.29c.18,1.89,3,2,3,0l0-1.37c0-1.64-2.57-2.1-3-.4a8.53,8.53,0,0,0-.2,2.85c.16,1.53,2.62,2.2,2.95.4.13-.75.22-1.39.29-2.15h-3a17.92,17.92,0,0,0,.24,3c.24,1.54,2.51,1.31,2.89,0a7.52,7.52,0,0,0,.41-2.66c.06-2-2.8-1.88-3,0a16,16,0,0,0,.12,4.09,1.51,1.51,0,0,0,1.84,1.05c1.78-.5,1.95-2.8,2.41-4.31l-2.94-.4a8.43,8.43,0,0,0,.67,3.43,1.51,1.51,0,0,0,1.7.69,3.14,3.14,0,0,0,1.42-1.19c.28-.34.57-1.17.92-1.34s.77.21,1.1.07a5.32,5.32,0,0,0,3-3.79c.54-1.71-1.81-2.48-2.74-1.16a2.74,2.74,0,0,0-.55,1.3c-.27,1.36,1.43,2.65,2.51,1.45.83-.51.73-.88-.28-1.12l.81,1.91c.52,1.21,2.46.81,2.74-.36a6,6,0,0,0,.24-2.38,1.51,1.51,0,0,0-2.79-.76c-.66,1.14-1.78,1.61-2,0-.14-1.16-1.6-2.13-2.56-1.06a22.36,22.36,0,0,0-2.64,3.62l2.74,1.15c.54-1.4,1.13-2.77,1.77-4.13l-2.59-1.52c-.33.69-1,2.18-1.8,2.47l1.46.38c.15-.93.7-1.18,1.66-.75.85,0,1.7,0,2.54,0,1.56,0,3.71-.58,5.21-.23l-1-1.05a14,14,0,0,0-1.54,2.33c-.09.44.21,2.26-.11,2.56-.53.5-2.38.14-3.11.14-1.11,0-2.6.28-3.65-.13-1.43-.55-1.65-1.79-1.82-3.32-.22-2,.09-3.53-.76-5.41s-3.38-.24-2.59,1.51Z" transform="translate(5 -76.25)"/></svg>