<svg id="Layer_1" data-name="Layer 1" xmlns="http://www.w3.org/2000/svg" viewBox="0 0 34.88 405.66"><defs><style>.cls-1{fill:#e3e3e3;}.cls-2{fill:#b2b2b2;}.cls-3{fill:#c2c2c2;}.cls-4{fill:#b3b3b3;}.cls-5{fill:#020202;}.cls-6{fill:#e0e0e0;}.cls-7{fill:#383838;}.cls-8{fill:#cfcfcf;}.cls-9{fill:#fdfdfd;}.cls-10{fill:#fcfcfc;}.cls-11{fill:#ededed;}.cls-12{fill:#ddd;}.cls-13{fill:#1f1f1f;}.cls-14{fill:#d3d3d3;}.cls-15{fill:#e2e2e2;}.cls-16{fill:#e1e1e1;}.cls-17{fill:#e5e5e5;}.cls-18{fill:#262626;}.cls-19{fill:#e4e4e4;}</style></defs><title>web</title><path class="cls-1" d="M93.72,283.25c1.54,1.86,1.35,3.61-.39,5.2-.79.73-2.1,1.29-2.47,0-1.08-3.72-3.57-7.06-3.18-11.19,1,2.06,2,4.14,3.14,6.18.36.66.28,1.93,1.48,1.73C93.24,285.05,93.54,284.12,93.72,283.25Z" transform="translate(-77.22 -8.27)"/><path class="cls-2" d="M78.84,300.69c-.69-1.73.55-3.73-.75-5.37-.07-1,.36-1.81,1.36-3.28C79.57,295.41,79.61,298.06,78.84,300.69Z" transform="translate(-77.22 -8.27)"/><path class="cls-3" d="M77.83,297.25c.15,1.62.58,3.27-.51,4.75A8.67,8.67,0,0,1,77.83,297.25Z" transform="translate(-77.22 -8.27)"/><path class="cls-4" d="M84,269l-1.39,1.51c-.06-1-.11-2.08-.17-3.18C83.63,267.42,83.83,268.19,84,269Z" transform="translate(-77.22 -8.27)"/><path class="cls-5" d="M98.6,260c1.85,5.81,4.23,11.46,5,17.58a7.81,7.81,0,0,1-.34-1.26c-.57-3.42-1.67-3.77-4.86-1.68a5.35,5.35,0,0,0-.43,4c2.08,8.46.93,16.93.25,25.41a7.07,7.07,0,0,0-.29,1.27c-.24,1.93-.14,3.87-.19,5.81-.18,5.13.69,10.36-1.24,15.35.9,4.17,3.55,7.62,4.54,11.81a154.11,154.11,0,0,1,3.74,50.77,11.79,11.79,0,0,1,0,2.07c-.09-2.33.22-5,.39-7.64.3-8.76-1.29-17.4-1.77-26.12a28.29,28.29,0,0,1-.7-3.67c-.16-.86-.44-1.82-1.53-1.85-1.3,0-1.55,1.08-1.72,2.06a13,13,0,0,0,0,4.85c.89,4.08.59,8.2.61,12.31,0,7.87,0,15.74,0,23.6.05,4.73,1.18,9.42.67,14.17-.11,1.11.54,2.86-1.45,3a41.32,41.32,0,0,1,3.91,2.14,21.06,21.06,0,0,1,.21-3.43c.5-3.3,0-6.81,1.48-9.89a46.57,46.57,0,0,0,3.74-11.32c3.33-17,.91-33.8-2.66-50.48-.74-3.45-3.51-6.55-3.69-9.61s3.49-6.06,4.4-9.61c.16-.61.35-1.2.51-1.8,2.25-9,2.43-18.25,2.46-27.52,0-15-5.18-29.2-6.31-44h-1.5c-1.28,1.23-.75,2.77-.72,4.23,0,.39-.06.43,0,.13.06-.5-.34,0,0-.34-.23-1.59-.66-3.12-2.23-4h-3c-.84,1-.46,2.11-.1,3.14C96.83,252.89,97.54,256.5,98.6,260Zm5,17.81a5.65,5.65,0,0,1,.36,2.26c0-.19,0-.38,0-.57A5.39,5.39,0,0,0,103.62,277.83Zm1.09,33.23a12.94,12.94,0,0,0-.13-1.37c-.73-9.41,0-18.86-.52-28.27A153.75,153.75,0,0,1,104.71,311.06Z" transform="translate(-77.22 -8.27)"/><path class="cls-5" d="M80.2,364c-.7-2.58,1.38-4.09,2.48-5.86a9.85,9.85,0,0,0,1.77-5.54,62.56,62.56,0,0,1,.29-8.22C86.21,332.83,83.16,322,80.05,311A58.69,58.69,0,0,1,84,268.82a14.08,14.08,0,0,0,1.07-6.1c.16-5.48.14-11,.19-16.45h3c3.13,1.44,4.57,4.33,6.08,7.14,1.33,2.49,2.08,5.25,3.51,7.7a15.86,15.86,0,0,1,1.55,4.75,2.21,2.21,0,0,1-1.82,2.45c-1.35.23-1.93-.89-2.48-1.86a36.66,36.66,0,0,1-2.66-5.72c-.15-.31-.28-.64-.41-1-1-2.59-2.46-5-3.57-7.48-.2.77.17,1.46.12,2.18q.26,12.68,0,25.31a82.38,82.38,0,0,0,1.9,17.3,14.57,14.57,0,0,1,0,6.27c-.81,3.27-2.87,4.48-6.28,3.8-2-3.67-1.71-7.72-1.51-11.63.18-3.73.2-7.45.28-11.17,0-1.89.84-3.68.75-5.6,0-.49,0-.85,0-.35,0,.05,0,.09,0,.18a8.51,8.51,0,0,1-.16,1.77,16,16,0,0,0-.58,4.6c.4,5.91-.87,11.79-.09,17.73a33.39,33.39,0,0,0,1.42,6.06c.87,3.42,1.32,7,3.11,10.1A28,28,0,0,0,92,325.61a38.15,38.15,0,0,1,7.47,12.87,14,14,0,0,1,.91,5.14c0,1.89,0,4.1-2.51,4.34s-2.68-2-2.94-3.63c-.69-4.46-2.85-8.2-5.34-11.81-.8-.91-1.71-2.24-1.77.35s.66,4.92.72,7.42c.18,7.45-.56,14.92.63,22.35.34,2.13-.55,4.17-.64,6.28a70.4,70.4,0,0,0,1.08,16.71c.26,3-1.44,4.49-4.07,5.26-2.81.14-3.52-1.9-3.95-4a42.67,42.67,0,0,1-.15-13.25c.2-1.83.38-3.67.6-5.49.1-1.1.79-2.06.87-3.16,0-.41.33-.84,0-1.25a2.6,2.6,0,0,1-.1,1.1,1.68,1.68,0,0,1-1.12,1C80.42,365.91,80.41,364.89,80.2,364Z" transform="translate(-77.22 -8.27)"/><path class="cls-6" d="M97.17,261.39c-2.9-5.09-4.69-10.83-8.94-15.12h7.5a112.81,112.81,0,0,1,3.71,13.5A13.23,13.23,0,0,1,97.17,261.39Z" transform="translate(-77.22 -8.27)"/><path class="cls-7" d="M101.73,246.27v6.92a3.15,3.15,0,0,1-1.42-2.55c.71-1.38-.81-3.1.67-4.37Z" transform="translate(-77.22 -8.27)"/><path class="cls-8" d="M101,246.27c-.15,1.47,1,3.14-.67,4.37-.53-1.46-1.06-2.91-1.58-4.37Z" transform="translate(-77.22 -8.27)"/><path class="cls-9" d="M90.63,332.44a25.28,25.28,0,0,1,5.54,12.76c.11.87-.43,2.61,1.48,2.36,1.48-.2,1.86-1.29,1.85-2.73-.07-7.29-3.73-13-8-18.38-1.84-2.31-4-4.38-4.82-7.39,0-.83-.22-2.07,1.13-1.8,1.77.36,4,.5,4.57,2.64s2,3.34,3.67,4.48c.9.45.68,1.53,1.2,2.19,9.49,20.08,10.58,41.26,8.19,62.89-2.4-1.24-.14-3.67-1.32-5.22l-1.68-26.78c-.56-1.58-.12-3.22-.31-4.82-.08-.64-.29-1.4-.94-1.46-.93-.07-1.2.8-1.24,1.55a54.39,54.39,0,0,0,0,6q.75,16.62.69,33.25c0,4.74.64,9.45.41,14.19,0,1,.2,2.26-.86,2.67-1.33.52-1.93-.79-2.58-1.65-1.58-2.09-3.36-4-4.75-6.26a10.06,10.06,0,0,0-5-4.24c-3.06-1.22-3.62-3.69-1.78-6.44,1.44-1.14,3.13-2.12,3-4.36a108.56,108.56,0,0,1-.42-16.63c.85-10.79-.17-21.6,0-32.41C88.59,335.07,88.09,333,90.63,332.44Z" transform="translate(-77.22 -8.27)"/><path class="cls-5" d="M105.23,163.27c1.13,14.8,6.36,29,6.31,44,0,9.27-.21,18.48-2.46,27.52-.16.6-.35,1.19-.51,1.8-.91,3.55-4.58,6.45-4.4,9.61s3,6.16,3.69,9.61c3.57,16.68,6,33.44,2.66,50.48a46.57,46.57,0,0,1-3.74,11.32c-1.49,3.08-1,6.59-1.48,9.89-1.17,7.75,2.56,14.55,4.1,21.78.47,2.18,1.3,4.31,1.14,6.61-1.71,1.81-1.54-.35-2-1-.35-.47.68-2.57-1.29-1-2.66-2.71-1.8-6.63-3.37-9.72-.57-4.75-3.8-8.55-4.69-13.19.15-1.07.31-2.13,1.74-2.16,2.34.05,1.61-1.81,1.73-3,.51-4.75-.62-9.44-.67-14.17-.09-7.86,0-15.73,0-23.6,0-4.11.28-8.23-.61-12.31a13,13,0,0,1,0-4.85c.17-1,.42-2.09,1.72-2.06,1.09,0,1.37,1,1.53,1.85a28.29,28.29,0,0,0,.7,3.67c.48,8.72,2.07,17.36,1.77,26.12-.17,2.66-.48,5.31-.39,7.64a11.79,11.79,0,0,0,0-2.07A154.11,154.11,0,0,0,103,255.28c-1-4.19-3.64-7.64-4.54-11.81,1.93-5,1.06-10.22,1.24-15.35,0-1.94,0-3.88.19-5.81a7.07,7.07,0,0,1,.29-1.27c.68-8.48,1.83-16.95-.25-25.41a5.35,5.35,0,0,1,.43-4c3.19-2.09,4.29-1.74,4.86,1.68a18.31,18.31,0,0,1,.73,3.18c.81,10-.14,20.13.64,30.17a18.4,18.4,0,0,1-.39,6.19c1.53-11.75,1.09-23.48-.21-35.21a6.7,6.7,0,0,0-.42-3c-.72-6.14-3.11-11.81-5-17.64-1.06-3.52-1.77-7.13-3-10.61-.36-1-.74-2.12.1-3.14h3c1.57.9,2,2.43,2.23,4-.31.36.09-.16,0,.34,0,.3,0,.26,0-.13,0-1.46-.56-3,.72-4.23Z" transform="translate(-77.22 -8.27)"/><path class="cls-5" d="M82.2,281c-.7-2.58,1.38-4.09,2.48-5.86a9.85,9.85,0,0,0,1.77-5.54,62.56,62.56,0,0,1,.29-8.22C88.21,249.83,85.16,239,82.05,228A58.69,58.69,0,0,1,86,185.82a14.08,14.08,0,0,0,1.07-6.1c.16-5.48.14-11,.19-16.45h3c3.13,1.44,4.57,4.33,6.08,7.14,1.33,2.49,2.08,5.25,3.51,7.7a15.86,15.86,0,0,1,1.55,4.75,2.21,2.21,0,0,1-1.82,2.45c-1.35.23-1.93-.89-2.48-1.86a36.66,36.66,0,0,1-2.66-5.72c-.15-.31-.28-.64-.41-1-1-2.59-2.46-5-3.57-7.48-.2.77.17,1.46.12,2.18q.26,12.67,0,25.31a82.38,82.38,0,0,0,1.9,17.3,14.57,14.57,0,0,1,0,6.27c-.81,3.27-2.87,4.48-6.28,3.8-2-3.67-1.71-7.72-1.51-11.63.18-3.73.2-7.45.28-11.17,0-1.89.84-3.68.75-5.6,0-.49,0-.85,0-.35,0,.05,0,.09,0,.18a8.51,8.51,0,0,1-.16,1.77,16,16,0,0,0-.58,4.6c.4,5.91-.87,11.79-.09,17.73a33.39,33.39,0,0,0,1.42,6.06c.87,3.42,1.32,7,3.11,10.1A28,28,0,0,0,94,242.61a38.15,38.15,0,0,1,7.47,12.87,14,14,0,0,1,.91,5.14c0,1.89,0,4.1-2.51,4.34s-2.68-2-2.94-3.63c-.69-4.46-2.85-8.2-5.34-11.81-.8-.91-1.71-2.24-1.77.35s.66,4.92.72,7.42c.18,7.45-.56,14.92.63,22.35.34,2.13-.55,4.17-.64,6.28a70.4,70.4,0,0,0,1.08,16.71c.26,3-1.44,4.49-4.07,5.26-2.81.14-3.52-1.9-3.95-4a42.67,42.67,0,0,1-.15-13.25c.2-1.83.38-3.67.6-5.49.1-1.1.79-2.06.87-3.16,0-.41.33-.84,0-1.25a2.6,2.6,0,0,1-.1,1.1,1.68,1.68,0,0,1-1.12,1C82.42,282.91,82.41,281.89,82.2,281Z" transform="translate(-77.22 -8.27)"/><path class="cls-6" d="M99.17,178.39c-2.9-5.09-4.69-10.83-8.94-15.12h7.5a112.81,112.81,0,0,1,3.71,13.5A13.23,13.23,0,0,1,99.17,178.39Z" transform="translate(-77.22 -8.27)"/><path class="cls-7" d="M103.73,163.27v6.92a3.15,3.15,0,0,1-1.42-2.55c.71-1.38-.81-3.1.67-4.37Z" transform="translate(-77.22 -8.27)"/><path class="cls-8" d="M103,163.27c-.15,1.47,1,3.14-.67,4.37-.53-1.46-1.06-2.91-1.58-4.37Z" transform="translate(-77.22 -8.27)"/><path class="cls-9" d="M92.63,249.44a25.28,25.28,0,0,1,5.54,12.76c.11.87-.43,2.61,1.48,2.36,1.48-.2,1.86-1.29,1.85-2.73-.07-7.29-3.73-13-8-18.38-1.84-2.31-4-4.38-4.82-7.39,0-.83-.22-2.07,1.13-1.8,1.77.36,4,.5,4.57,2.64s2,3.34,3.67,4.48c.9.45.68,1.53,1.2,2.19,9.49,20.08,10.58,41.26,8.19,62.89-2.4-1.24-.14-3.67-1.32-5.22l-1.68-26.78c-.56-1.58-.12-3.22-.31-4.82-.08-.64-.29-1.4-.94-1.46-.93-.07-1.2.8-1.24,1.55a54.39,54.39,0,0,0,0,6q.75,16.62.69,33.25c0,4.74.64,9.45.41,14.19,0,1,.2,2.26-.86,2.67-1.33.52-1.93-.79-2.58-1.65-1.58-2.09-3.36-4-4.75-6.26a10.06,10.06,0,0,0-5-4.24c-3.06-1.22-3.62-3.69-1.78-6.44,1.44-1.14,3.13-2.12,3-4.36a108.56,108.56,0,0,1-.42-16.63c.85-10.79-.17-21.6,0-32.41C90.59,252.07,90.09,250,92.63,249.44Z" transform="translate(-77.22 -8.27)"/><path class="cls-10" d="M97.88,242c-2.16-.79-3.84-1.9-4.24-4.49-.3-2-3.59-2.78-5-1.42-2-2.9-2.33-6.3-3-9.6-.11-1-1.14-2.32.94-2.49,3.56-.26,5.28-2.15,5.12-5.74,0-1.22-.07-2.45-.1-3.67-1.53-11.49-.06-23,0-34.48a5.15,5.15,0,0,1,1-3.5c.77-.88,1.45-.77,2,.21v0c.38,3.35,2.52,6.07,3.27,9.32.37,1.58,1.72,1.27,2.45.09a3.17,3.17,0,0,0,.33-3.46c-.53-1.46-1-2.92-1.57-4.38.22-1.28.46-2.55,2.27-1.62,2.31,5.73,4.49,11.5,4.67,17.79.14.75.65,1.67-.79,1.68a20.14,20.14,0,0,1-.72-2.9c-.33-2.93-1.79-2.84-3.79-1.54-1.21,2.3-.28,4.66,0,6.93.85,7.72-.4,15.43.07,23.13v0c-1,1.88-.26,3.93-.51,5.88-.06,4.21.13,8.42-.15,13.36-3.43-2.33-4.06-6-6.2-8.48-1.59-1.25-1.54-4.4-4.59-4-.55,1.54-.82,3,.79,4.34-.21-1.57-1.72-2.83-.68-4.45,2.64-.2,2.67,2.58,4.19,3.67C95.23,235.39,98.39,237.9,97.88,242Z" transform="translate(-77.22 -8.27)"/><path class="cls-11" d="M106.62,197.05c2,12.23,2.6,24.44-.77,36.62v-6.32c-.53-9.69-.11-19.38-.22-29.07C105.63,197.61,105.77,197,106.62,197.05Z" transform="translate(-77.22 -8.27)"/><path class="cls-12" d="M100.85,221.86a8.28,8.28,0,0,1-.81-2.43c-.08-8.7-.08-17.4-.09-26.1a1.58,1.58,0,0,1,.86-1.53c-.39,3.29.83,6.4,1,9.63A86.8,86.8,0,0,1,100.85,221.86Z" transform="translate(-77.22 -8.27)"/><path class="cls-13" d="M94,231.5c2.49,2.35,3.48,5.68,6,9.38V228c.06-.33.25-.43.56-.35-.19,5.34,1.26,10.84-1.43,16L97.88,242c-1.15-3.35-3.15-6.28-4.79-9.38C92.71,231.63,93.23,231.45,94,231.5Z" transform="translate(-77.22 -8.27)"/><path class="cls-14" d="M106.62,197.05c-1,1.18-.57,2.61-.59,3.92-.09,8.79-.13,17.58-.18,26.37-1.1-4.76-.41-9.6-.52-14.4-.12-5.57,0-11.13,0-16.7l.79-1.68A2.89,2.89,0,0,1,106.62,197.05Z" transform="translate(-77.22 -8.27)"/><path class="cls-12" d="M100.63,227.61l-.56.35c.05-2.07-.84-4.26.78-6.13C100.78,223.75,100.71,225.68,100.63,227.61Z" transform="translate(-77.22 -8.27)"/><path class="cls-15" d="M94.68,176.79c-1.42-.76-2,.38-1.9,1.27.4,2.38-.33,4.66-.36,7-.15,9.83-.53,19.67-.82,29.5a50.84,50.84,0,0,1-2-13.94c-.16-10.19,0-20.39,0-30.59.54-.44-.08-1.93,1.39-1.51A32.19,32.19,0,0,1,94.68,176.79Z" transform="translate(-77.22 -8.27)"/><path class="cls-16" d="M92.63,249.44c-1.35.93-1.23,2.5-1.16,3.72a263.45,263.45,0,0,1,0,30.91c-.35,6.28.09,12.56-.59,18.81a24.91,24.91,0,0,1-1.44-9.9c.88-15.84-.09-31.64-.72-47.82C90.94,246.06,91.8,247.74,92.63,249.44Z" transform="translate(-77.22 -8.27)"/><path class="cls-17" d="M86.58,224c-1,.57-.7,1.63-.94,2.49-2-4.54-2-9.36-1.87-14.19.12-3.58.37-7.16.56-10.75.67-1.53-.06-3.21.51-4.75l.26-1.93c2,1.55.78,3.54.76,5.37,0,6.72,0,13.43,0,20.14A21,21,0,0,0,86.58,224Z" transform="translate(-77.22 -8.27)"/><path class="cls-1" d="M100.74,182.77c1.54,1.86,1.35,3.61-.39,5.21-.8.72-2.11,1.29-2.47,0-1.08-3.72-3.58-7.06-3.19-11.19,1,2.06,2,4.15,3.15,6.18.36.66.28,1.93,1.47,1.73C100.25,184.57,100.56,183.64,100.74,182.77Z" transform="translate(-77.22 -8.27)"/><path class="cls-2" d="M85.86,200.21c-.69-1.73.54-3.73-.76-5.37-.07-1,.36-1.81,1.37-3.28C86.58,194.93,86.63,197.58,85.86,200.21Z" transform="translate(-77.22 -8.27)"/><path class="cls-3" d="M84.84,196.77c.15,1.62.58,3.27-.51,4.75A8.77,8.77,0,0,1,84.84,196.77Z" transform="translate(-77.22 -8.27)"/><path class="cls-4" d="M91,168.52,89.58,170c0-1-.11-2.08-.17-3.18C90.65,167,90.84,167.71,91,168.52Z" transform="translate(-77.22 -8.27)"/><path class="cls-9" d="M89.5,228.48A16.21,16.21,0,0,0,92,234c-4.68-1.05-5.29-2.41-2.5-5.47Z" transform="translate(-77.22 -8.27)"/><path class="cls-18" d="M94,231.5l-.94,1.09-3.59-4.11,0,0c.28-1.37,1.13-1.25,1.82-.5A42.14,42.14,0,0,1,94,231.5Z" transform="translate(-77.22 -8.27)"/><path class="cls-5" d="M105.23,8.27c1.13,14.8,6.36,29,6.31,44,0,9.27-.21,18.48-2.46,27.52-.16.6-.35,1.19-.51,1.8-.91,3.55-4.58,6.45-4.4,9.61s3,6.16,3.69,9.61c3.57,16.68,6,33.44,2.66,50.48a46.57,46.57,0,0,1-3.74,11.32c-1.49,3.08-1,6.59-1.48,9.89-1.17,7.75,2.56,14.55,4.1,21.78.47,2.18,1.3,4.31,1.14,6.61-1.71,1.81-1.54-.35-2-1-.35-.47.68-2.57-1.29-1-2.66-2.71-1.8-6.63-3.37-9.72-.57-4.75-3.8-8.55-4.69-13.19.15-1.07.31-2.13,1.74-2.16,2.34,0,1.61-1.81,1.73-3,.51-4.75-.62-9.44-.67-14.17-.09-7.86,0-15.73,0-23.6,0-4.11.28-8.23-.61-12.31a13,13,0,0,1,0-4.85c.17-1,.42-2.09,1.72-2.06,1.09,0,1.37,1,1.53,1.85a28.29,28.29,0,0,0,.7,3.67c.48,8.72,2.07,17.36,1.77,26.12-.17,2.66-.48,5.31-.39,7.64a11.79,11.79,0,0,0,0-2.07A154.11,154.11,0,0,0,103,100.28c-1-4.19-3.64-7.64-4.54-11.81,1.93-5,1.06-10.22,1.24-15.35,0-1.94,0-3.88.19-5.81a7.07,7.07,0,0,1,.29-1.27c.68-8.48,1.83-17-.25-25.41a5.35,5.35,0,0,1,.43-4c3.19-2.09,4.29-1.74,4.86,1.68a18.31,18.31,0,0,1,.73,3.18c.81,10-.14,20.13.64,30.17a18.4,18.4,0,0,1-.39,6.19c1.53-11.75,1.09-23.48-.21-35.21a6.7,6.7,0,0,0-.42-3c-.72-6.14-3.11-11.81-5-17.64-1.06-3.52-1.77-7.13-3-10.61-.36-1-.74-2.12.1-3.14h3c1.57.9,2,2.43,2.23,4-.31.36.09-.16,0,.34,0,.3,0,.26,0-.13,0-1.46-.56-3,.72-4.23Z" transform="translate(-77.22 -8.27)"/><path class="cls-5" d="M82.2,126c-.7-2.58,1.38-4.09,2.48-5.86a9.85,9.85,0,0,0,1.77-5.54,62.56,62.56,0,0,1,.29-8.22C88.21,94.83,85.16,84,82.05,73A58.69,58.69,0,0,1,86,30.82,14.08,14.08,0,0,0,87,24.72c.16-5.48.14-11,.19-16.45h3c3.13,1.44,4.57,4.33,6.08,7.14,1.33,2.49,2.08,5.25,3.51,7.7a15.86,15.86,0,0,1,1.55,4.75,2.21,2.21,0,0,1-1.82,2.45c-1.35.23-1.93-.89-2.48-1.86a36.66,36.66,0,0,1-2.66-5.72c-.15-.31-.28-.64-.41-1-1-2.59-2.46-5-3.57-7.48-.2.77.17,1.46.12,2.18q.26,12.67,0,25.31a82.38,82.38,0,0,0,1.9,17.3,14.57,14.57,0,0,1,0,6.27c-.81,3.27-2.87,4.48-6.28,3.8-2-3.67-1.71-7.72-1.51-11.63.18-3.73.2-7.45.28-11.17,0-1.89.84-3.68.75-5.6,0-.49,0-.85,0-.35,0,0,0,.09,0,.18a8.51,8.51,0,0,1-.16,1.77,16,16,0,0,0-.58,4.6c.4,5.91-.87,11.79-.09,17.73a33.39,33.39,0,0,0,1.42,6.06c.87,3.42,1.32,7,3.11,10.1A28,28,0,0,0,94,87.61a38.15,38.15,0,0,1,7.47,12.87,14,14,0,0,1,.91,5.14c0,1.89,0,4.1-2.51,4.34s-2.68-2-2.94-3.63c-.69-4.46-2.85-8.2-5.34-11.81-.8-.91-1.71-2.24-1.77.35s.66,4.92.72,7.42c.18,7.45-.56,14.92.63,22.35.34,2.13-.55,4.17-.64,6.28a70.4,70.4,0,0,0,1.08,16.71c.26,3-1.44,4.49-4.07,5.26-2.81.14-3.52-1.9-3.95-4a42.67,42.67,0,0,1-.15-13.25c.2-1.83.38-3.67.6-5.49.1-1.1.79-2.06.87-3.16,0-.41.33-.84,0-1.25a2.6,2.6,0,0,1-.1,1.1,1.68,1.68,0,0,1-1.12,1C82.42,127.91,82.41,126.89,82.2,126Z" transform="translate(-77.22 -8.27)"/><path class="cls-6" d="M99.17,23.39c-2.9-5.09-4.69-10.83-8.94-15.12h7.5a112.81,112.81,0,0,1,3.71,13.5A13.23,13.23,0,0,1,99.17,23.39Z" transform="translate(-77.22 -8.27)"/><path class="cls-7" d="M103.73,8.27v6.92a3.15,3.15,0,0,1-1.42-2.55c.71-1.38-.81-3.1.67-4.37Z" transform="translate(-77.22 -8.27)"/><path class="cls-8" d="M103,8.27c-.15,1.47,1,3.14-.67,4.37-.53-1.46-1.06-2.91-1.58-4.37Z" transform="translate(-77.22 -8.27)"/><path class="cls-9" d="M92.63,94.44a25.28,25.28,0,0,1,5.54,12.76c.11.87-.43,2.61,1.48,2.36,1.48-.2,1.86-1.29,1.85-2.73-.07-7.29-3.73-13-8-18.38-1.84-2.31-4-4.38-4.82-7.39,0-.83-.22-2.07,1.13-1.8,1.77.36,4,.5,4.57,2.64s2,3.34,3.67,4.48c.9.45.68,1.53,1.2,2.19,9.49,20.08,10.58,41.26,8.19,62.89-2.4-1.24-.14-3.67-1.32-5.22l-1.68-26.78c-.56-1.58-.12-3.22-.31-4.82-.08-.64-.29-1.4-.94-1.46-.93-.07-1.2.8-1.24,1.55a54.39,54.39,0,0,0,0,6q.75,16.62.69,33.25c0,4.74.64,9.45.41,14.19,0,1,.2,2.26-.86,2.67-1.33.52-1.93-.79-2.58-1.65-1.58-2.09-3.36-4-4.75-6.26a10.06,10.06,0,0,0-5-4.24c-3.06-1.22-3.62-3.69-1.78-6.44,1.44-1.14,3.13-2.12,3-4.36a108.56,108.56,0,0,1-.42-16.63c.85-10.79-.17-21.6,0-32.41C90.59,97.07,90.09,95,92.63,94.44Z" transform="translate(-77.22 -8.27)"/><path class="cls-10" d="M97.88,87c-2.16-.79-3.84-1.9-4.24-4.49-.3-2-3.59-2.78-5-1.42-2-2.9-2.33-6.3-3-9.6-.11-1-1.14-2.32.94-2.49,3.56-.26,5.28-2.15,5.12-5.74,0-1.22-.07-2.45-.1-3.67-1.53-11.49-.06-23,0-34.48a5.15,5.15,0,0,1,1-3.5c.77-.88,1.45-.77,2,.21v0c.38,3.35,2.52,6.07,3.27,9.32.37,1.58,1.72,1.27,2.45.09a3.17,3.17,0,0,0,.33-3.46c-.53-1.46-1-2.92-1.57-4.38.22-1.28.46-2.55,2.27-1.62,2.31,5.73,4.49,11.5,4.67,17.79.14.75.65,1.67-.79,1.68a20.14,20.14,0,0,1-.72-2.9c-.33-2.93-1.79-2.84-3.79-1.54-1.21,2.3-.28,4.66,0,6.93.85,7.72-.4,15.43.07,23.13v0c-1,1.88-.26,3.93-.51,5.88-.06,4.21.13,8.42-.15,13.36-3.43-2.33-4.06-6-6.2-8.48-1.59-1.25-1.54-4.4-4.59-4-.55,1.54-.82,3,.79,4.34-.21-1.57-1.72-2.83-.68-4.45,2.64-.2,2.67,2.58,4.19,3.67C95.23,80.39,98.39,82.9,97.88,87Z" transform="translate(-77.22 -8.27)"/><path class="cls-19" d="M88,152.24c-.26,2.47-1.24,5.16,2.93,5.49,1.71.13,2.89,1.77,3.91,3.23,2.25,3.19,4.55,6.33,7.18,10,0-10,.42-19.38-.12-28.75-.56-9.6-.15-19.18-.38-28.77,0-1.38.76-2.78,2.05-2.7,1.55.09.86,1.79.9,2.78.09,2,0,4,0,6q-.56-2.68-1.1-5.38l-1.07,0c1,20.75,1,41.51,1.42,63.38l-3-3.43c-2-1.18-2.84-3.27-4-5.11a3.13,3.13,0,0,1-.42-.91c-.15.47.28.76.35,1.17,0,1.21.85,1.9,1.61,2.65a7.64,7.64,0,0,1,1.36,4.38c-1.3,2.33-2.56,1.5-3.27-.28s-2.08-2.73-2.69-4.35a1.87,1.87,0,0,0-2.3-1.32,4.29,4.29,0,0,1-2.46,0,8.2,8.2,0,0,1-1.69-4.37,12.55,12.55,0,0,0-1.45-4.61,51.21,51.21,0,0,1-3.83-25.67,3.15,3.15,0,0,1,.43,2.64c-.33-1.81.54-4.34.44-7l.94-3.68.56-.81c1.83.23.87,1.47.86,2.37-.55,6.86-1.8,13.69-.3,20.6C85.24,151.73,86,152.62,88,152.24Z" transform="translate(-77.22 -8.27)"/><path class="cls-11" d="M106.62,42.05c2,12.23,2.6,24.44-.77,36.62V72.35c-.53-9.69-.11-19.38-.22-29.07C105.63,42.61,105.77,42,106.62,42.05Z" transform="translate(-77.22 -8.27)"/><path class="cls-12" d="M100.85,66.86a8.28,8.28,0,0,1-.81-2.43C100,55.73,100,47,100,38.33a1.58,1.58,0,0,1,.86-1.53c-.39,3.29.83,6.4,1,9.63A86.8,86.8,0,0,1,100.85,66.86Z" transform="translate(-77.22 -8.27)"/><path class="cls-13" d="M94,76.5c2.49,2.35,3.48,5.68,6,9.38V73c.06-.33.25-.43.56-.35-.19,5.34,1.26,10.84-1.43,16L97.88,87c-1.15-3.35-3.15-6.28-4.79-9.38C92.71,76.63,93.23,76.45,94,76.5Z" transform="translate(-77.22 -8.27)"/><path class="cls-14" d="M106.62,42.05c-1,1.18-.57,2.61-.59,3.92-.09,8.79-.13,17.58-.18,26.37-1.1-4.76-.41-9.6-.52-14.4-.12-5.57,0-11.13,0-16.7l.79-1.68A2.89,2.89,0,0,1,106.62,42.05Z" transform="translate(-77.22 -8.27)"/><path class="cls-12" d="M100.63,72.61l-.56.35c.05-2.07-.84-4.26.78-6.13Q100.75,69.71,100.63,72.61Z" transform="translate(-77.22 -8.27)"/><path class="cls-15" d="M94.68,21.79c-1.42-.76-2,.38-1.9,1.27.4,2.38-.33,4.66-.36,7-.15,9.83-.53,19.67-.82,29.5a50.84,50.84,0,0,1-2-13.94c-.16-10.19,0-20.39,0-30.59.54-.44-.08-1.93,1.39-1.51A32.19,32.19,0,0,1,94.68,21.79Z" transform="translate(-77.22 -8.27)"/><path class="cls-16" d="M92.63,94.44c-1.35.93-1.23,2.5-1.16,3.72a263.45,263.45,0,0,1,0,30.91c-.35,6.28.09,12.56-.59,18.81a24.91,24.91,0,0,1-1.44-9.9c.88-15.84-.09-31.64-.72-47.82C90.94,91.06,91.8,92.74,92.63,94.44Z" transform="translate(-77.22 -8.27)"/><path class="cls-17" d="M86.58,69c-1,.57-.7,1.63-.94,2.49-2-4.54-2-9.36-1.87-14.19.12-3.58.37-7.16.56-10.75.67-1.53-.06-3.21.51-4.75l.26-1.93c2,1.55.78,3.54.76,5.37,0,6.72,0,13.43,0,20.14A21,21,0,0,0,86.58,69Z" transform="translate(-77.22 -8.27)"/><path class="cls-1" d="M100.74,27.77c1.54,1.86,1.35,3.61-.39,5.21-.8.72-2.11,1.29-2.47,0C96.8,29.29,94.3,26,94.69,21.82c1,2.06,2,4.15,3.15,6.18.36.66.28,1.93,1.47,1.73C100.25,29.57,100.56,28.64,100.74,27.77Z" transform="translate(-77.22 -8.27)"/><path class="cls-2" d="M85.86,45.21c-.69-1.73.54-3.73-.76-5.37-.07-1,.36-1.81,1.37-3.28C86.58,39.93,86.63,42.58,85.86,45.21Z" transform="translate(-77.22 -8.27)"/><path class="cls-3" d="M84.84,41.77c.15,1.62.58,3.27-.51,4.75A8.77,8.77,0,0,1,84.84,41.77Z" transform="translate(-77.22 -8.27)"/><path class="cls-4" d="M91,13.52,89.58,15c0-1-.11-2.08-.17-3.18C90.65,12,90.84,12.71,91,13.52Z" transform="translate(-77.22 -8.27)"/><path class="cls-9" d="M89.5,73.48A16.21,16.21,0,0,0,92,79c-4.68-1-5.29-2.41-2.5-5.47Z" transform="translate(-77.22 -8.27)"/><path class="cls-18" d="M94,76.5l-.94,1.09L89.5,73.48l0,0c.28-1.37,1.13-1.25,1.82-.5A42.14,42.14,0,0,1,94,76.5Z" transform="translate(-77.22 -8.27)"/><polygon points="10.29 159.37 9.69 144.62 13.75 142.44 11.63 161.98 10.29 159.37"/></svg>