<svg id="Layer_1" data-name="Layer 1" xmlns="http://www.w3.org/2000/svg" viewBox="0 0 137.7 717.07"><defs><style>.cls-1{fill:#e3e3e3;}.cls-2{fill:#b2b2b2;}.cls-3{fill:#c2c2c2;}.cls-4{fill:#b3b3b3;}.cls-5{fill:#020202;}.cls-6{fill:#e0e0e0;}.cls-7{fill:#383838;}.cls-8{fill:#cfcfcf;}.cls-9{fill:#fdfdfd;}.cls-10{fill:#fcfcfc;}.cls-11{fill:#ededed;}.cls-12{fill:#ddd;}.cls-13{fill:#1f1f1f;}.cls-14{fill:#d3d3d3;}.cls-15{fill:#e2e2e2;}.cls-16{fill:#e1e1e1;}.cls-17{fill:#e5e5e5;}.cls-18{fill:#262626;}.cls-19{fill:#e4e4e4;}.cls-20{fill:#fff;}.cls-21{fill:#3b97d2;}.cls-22{fill:#4eb96f;}.cls-23{fill:#e64d3c;}.cls-24{fill:#f19b20;}</style></defs><title>web</title><path class="cls-1" d="M195.47,611c1.54,1.86,1.35,3.61-.39,5.2-.79.73-2.1,1.29-2.47,0-1.08-3.72-3.57-7.06-3.18-11.19,1,2.06,2,4.14,3.14,6.18.36.66.28,1.93,1.48,1.73C195,612.83,195.29,611.9,195.47,611Z" transform="translate(-128.03 -24.69)"/><path class="cls-2" d="M180.59,628.47c-.69-1.73.55-3.73-.75-5.37-.07-1,.36-1.81,1.36-3.28C181.32,623.19,181.36,625.84,180.59,628.47Z" transform="translate(-128.03 -24.69)"/><path class="cls-3" d="M179.58,625c.15,1.62.58,3.27-.51,4.75A8.67,8.67,0,0,1,179.58,625Z" transform="translate(-128.03 -24.69)"/><path class="cls-4" d="M185.75,596.78l-1.39,1.51c-.06-1-.11-2.08-.17-3.18C185.38,595.2,185.58,596,185.75,596.78Z" transform="translate(-128.03 -24.69)"/><path class="cls-5" d="M200.35,587.78c1.85,5.81,4.23,11.46,5,17.58a7.81,7.81,0,0,1-.34-1.26c-.57-3.42-1.67-3.77-4.86-1.68a5.35,5.35,0,0,0-.43,4c2.08,8.46.93,16.93.25,25.41a7.79,7.79,0,0,0-.29,1.27c-.24,1.93-.14,3.87-.19,5.81-.18,5.13.69,10.36-1.24,15.35.9,4.17,3.55,7.62,4.54,11.81a154.09,154.09,0,0,1,3.74,50.77,11.92,11.92,0,0,1,0,2.07c-.09-2.33.22-5,.39-7.64.3-8.76-1.29-17.4-1.77-26.12a28.61,28.61,0,0,1-.7-3.67c-.16-.86-.44-1.82-1.53-1.85-1.3,0-1.55,1.08-1.72,2.06a13.18,13.18,0,0,0,0,4.85c.89,4.08.59,8.2.61,12.31v23.6c.05,4.73,1.18,9.42.67,14.17-.11,1.11.54,2.86-1.45,3a41.11,41.11,0,0,1,3.91,2.14,21.87,21.87,0,0,1,.21-3.43c.5-3.3,0-6.81,1.48-9.89a46.15,46.15,0,0,0,3.74-11.32c3.33-17,.91-33.8-2.66-50.48-.74-3.45-3.51-6.55-3.69-9.61s3.49-6.06,4.4-9.61c.16-.61.35-1.2.51-1.8,2.25-9,2.43-18.25,2.46-27.52,0-15-5.18-29.2-6.31-44h-1.5c-1.28,1.23-.75,2.77-.72,4.23,0,.39-.06.43,0,.13.06-.5-.34,0,0-.34-.23-1.59-.66-3.12-2.23-4h-3c-.84,1-.46,2.11-.1,3.14C198.58,580.67,199.29,584.28,200.35,587.78Zm5,17.81a5.62,5.62,0,0,1,.36,2.26v-.57a5.34,5.34,0,0,0-.34-1.67Zm1.09,33.23a12.69,12.69,0,0,0-.13-1.37c-.73-9.41,0-18.86-.52-28.27a153.13,153.13,0,0,1,.67,29.66Z" transform="translate(-128.03 -24.69)"/><path class="cls-5" d="M182,691.78c-.7-2.58,1.38-4.09,2.48-5.86a9.83,9.83,0,0,0,1.77-5.54,62.69,62.69,0,0,1,.29-8.22c1.47-11.55-1.58-22.38-4.69-33.38a58.71,58.71,0,0,1,3.95-42.18,14,14,0,0,0,1.07-6.1c.16-5.48.14-11,.19-16.45h3c3.13,1.44,4.57,4.33,6.08,7.14,1.33,2.49,2.08,5.25,3.51,7.7a15.67,15.67,0,0,1,1.55,4.75,2.2,2.2,0,0,1-1.82,2.45c-1.35.23-1.93-.89-2.48-1.86a36.66,36.66,0,0,1-2.66-5.72,10.39,10.39,0,0,1-.41-1c-1-2.59-2.46-5-3.57-7.48-.2.77.17,1.46.12,2.18q.27,12.67,0,25.31a82.45,82.45,0,0,0,1.9,17.3,14.42,14.42,0,0,1,0,6.27c-.81,3.27-2.87,4.48-6.28,3.8-2-3.67-1.71-7.72-1.51-11.63.18-3.73.2-7.45.28-11.17,0-1.89.84-3.68.75-5.6v-.17a8,8,0,0,1-.16,1.77,16.27,16.27,0,0,0-.58,4.6c.4,5.91-.87,11.79-.09,17.73a34,34,0,0,0,1.42,6.06c.87,3.42,1.32,7,3.11,10.1a28.26,28.26,0,0,0,4.58,6.81,38.15,38.15,0,0,1,7.47,12.87,14.11,14.11,0,0,1,.91,5.14c0,1.89,0,4.1-2.51,4.34s-2.68-2-2.94-3.63c-.69-4.46-2.85-8.2-5.34-11.81-.8-.91-1.71-2.24-1.77.35s.66,4.92.72,7.42c.18,7.45-.56,14.92.63,22.35.34,2.13-.55,4.17-.64,6.28a70.92,70.92,0,0,0,1.08,16.71c.26,3-1.44,4.49-4.07,5.26-2.81.14-3.52-1.9-3.95-4a42.67,42.67,0,0,1-.15-13.25c.2-1.83.38-3.67.6-5.49.1-1.1.79-2.06.87-3.16,0-.41.33-.84,0-1.25a2.55,2.55,0,0,1-.1,1.1,1.67,1.67,0,0,1-1.12,1C182.17,693.69,182.16,692.67,182,691.78Z" transform="translate(-128.03 -24.69)"/><path class="cls-6" d="M198.92,589.17c-2.9-5.09-4.69-10.83-8.94-15.12h7.5a111,111,0,0,1,3.71,13.5A13.39,13.39,0,0,1,198.92,589.17Z" transform="translate(-128.03 -24.69)"/><path class="cls-7" d="M203.48,574.05V581a3.17,3.17,0,0,1-1.42-2.55c.71-1.38-.81-3.1.67-4.37Z" transform="translate(-128.03 -24.69)"/><path class="cls-8" d="M202.75,574.05c-.15,1.47,1,3.14-.67,4.37-.53-1.46-1.06-2.91-1.58-4.37Z" transform="translate(-128.03 -24.69)"/><path class="cls-9" d="M192.38,660.22A25.24,25.24,0,0,1,197.92,673c.11.87-.43,2.61,1.48,2.36,1.48-.2,1.86-1.29,1.85-2.73-.07-7.29-3.73-13-8-18.38-1.84-2.31-4-4.38-4.82-7.39,0-.83-.22-2.07,1.13-1.8,1.77.36,4,.5,4.57,2.64s2,3.34,3.67,4.48c.9.45.68,1.53,1.2,2.19,9.49,20.08,10.58,41.26,8.19,62.89-2.4-1.24-.14-3.67-1.32-5.22l-1.68-26.78c-.56-1.58-.12-3.22-.31-4.82-.08-.64-.29-1.4-.94-1.46-.93-.07-1.2.8-1.24,1.55a54.59,54.59,0,0,0,0,6q.75,16.62.69,33.25c0,4.74.64,9.45.41,14.19,0,1,.2,2.26-.86,2.67-1.33.52-1.93-.79-2.58-1.65-1.58-2.09-3.36-4-4.75-6.26a10,10,0,0,0-5-4.24c-3.06-1.22-3.62-3.69-1.78-6.44,1.44-1.14,3.13-2.12,3-4.36a109.91,109.91,0,0,1-.42-16.63c.85-10.79-.17-21.6,0-32.41C190.34,662.85,189.84,660.78,192.38,660.22Z" transform="translate(-128.03 -24.69)"/><path class="cls-5" d="M207,491.05c1.13,14.8,6.36,29,6.31,44,0,9.27-.21,18.48-2.46,27.52-.16.6-.35,1.19-.51,1.8-.91,3.55-4.58,6.45-4.4,9.61s3,6.16,3.69,9.61c3.57,16.68,6,33.44,2.66,50.48a46.15,46.15,0,0,1-3.74,11.32c-1.49,3.08-1,6.59-1.48,9.89-1.17,7.75,2.56,14.55,4.1,21.78.47,2.18,1.3,4.31,1.14,6.61-1.71,1.81-1.54-.35-2-1-.35-.47.68-2.57-1.29-1-2.66-2.71-1.8-6.63-3.37-9.72-.57-4.75-3.8-8.55-4.69-13.19.15-1.07.31-2.13,1.74-2.16,2.34,0,1.61-1.81,1.73-3,.51-4.75-.62-9.44-.67-14.17-.09-7.86,0-15.73,0-23.6,0-4.11.28-8.23-.61-12.31a13.18,13.18,0,0,1,0-4.85c.17-1,.42-2.09,1.72-2.06,1.09,0,1.37,1,1.53,1.85a28.61,28.61,0,0,0,.7,3.67c.48,8.72,2.07,17.36,1.77,26.12-.17,2.66-.48,5.31-.39,7.64a11.93,11.93,0,0,0,0-2.07,154,154,0,0,0-3.71-50.76c-1-4.19-3.64-7.64-4.54-11.81,1.93-5,1.06-10.22,1.24-15.35,0-1.94,0-3.88.19-5.81a7.79,7.79,0,0,1,.29-1.27c.68-8.48,1.83-17-.25-25.41a5.35,5.35,0,0,1,.43-4c3.19-2.09,4.29-1.74,4.86,1.68a18.31,18.31,0,0,1,.73,3.18c.81,10-.14,20.13.64,30.17a18.42,18.42,0,0,1-.39,6.19c1.53-11.75,1.09-23.48-.21-35.21a6.68,6.68,0,0,0-.42-3c-.72-6.14-3.11-11.81-5-17.64-1.06-3.52-1.77-7.13-3-10.61-.36-1-.74-2.12.1-3.14h3c1.57.9,2,2.43,2.23,4-.31.36.09-.16,0,.34v-.13c0-1.46-.56-3,.72-4.23Z" transform="translate(-128.03 -24.69)"/><path class="cls-5" d="M184,608.78c-.7-2.58,1.38-4.09,2.48-5.86a9.83,9.83,0,0,0,1.77-5.54,62.69,62.69,0,0,1,.29-8.22c1.47-11.55-1.58-22.38-4.69-33.38a58.71,58.71,0,0,1,3.95-42.18,14,14,0,0,0,1.07-6.1c.16-5.48.14-11,.19-16.45h3c3.13,1.44,4.57,4.33,6.08,7.14,1.33,2.49,2.08,5.25,3.51,7.7a15.67,15.67,0,0,1,1.55,4.75,2.2,2.2,0,0,1-1.82,2.45c-1.35.23-1.93-.89-2.48-1.86a36.66,36.66,0,0,1-2.66-5.72,10.39,10.39,0,0,1-.41-1c-1-2.59-2.46-5-3.57-7.48-.2.77.17,1.46.12,2.18q.27,12.68,0,25.31a82.45,82.45,0,0,0,1.9,17.3,14.42,14.42,0,0,1,0,6.27c-.81,3.27-2.87,4.48-6.28,3.8-2-3.67-1.71-7.72-1.51-11.63.18-3.73.2-7.45.28-11.17,0-1.89.84-3.68.75-5.6v-.17a8,8,0,0,1-.16,1.77,16.27,16.27,0,0,0-.58,4.6c.4,5.91-.87,11.79-.09,17.73a34,34,0,0,0,1.42,6.06c.87,3.42,1.32,7,3.11,10.1a28.26,28.26,0,0,0,4.58,6.81,38.15,38.15,0,0,1,7.47,12.87,14.11,14.11,0,0,1,.91,5.14c0,1.89,0,4.1-2.51,4.34s-2.68-2-2.94-3.63c-.69-4.46-2.85-8.2-5.34-11.81-.8-.91-1.71-2.24-1.77.35s.66,4.92.72,7.42c.18,7.45-.56,14.92.63,22.35.34,2.13-.55,4.17-.64,6.28a70.92,70.92,0,0,0,1.08,16.71c.26,3-1.44,4.49-4.07,5.26-2.81.14-3.52-1.9-3.95-4a42.67,42.67,0,0,1-.15-13.25c.2-1.83.38-3.67.6-5.49.1-1.1.79-2.06.87-3.16,0-.41.33-.84,0-1.25a2.55,2.55,0,0,1-.1,1.1,1.67,1.67,0,0,1-1.12,1C184.17,610.69,184.16,609.67,184,608.78Z" transform="translate(-128.03 -24.69)"/><path class="cls-6" d="M200.92,506.17c-2.9-5.09-4.69-10.83-8.94-15.12h7.5a111,111,0,0,1,3.71,13.5A13.39,13.39,0,0,1,200.92,506.17Z" transform="translate(-128.03 -24.69)"/><path class="cls-7" d="M205.48,491.05V498a3.17,3.17,0,0,1-1.42-2.55c.71-1.38-.81-3.1.67-4.37Z" transform="translate(-128.03 -24.69)"/><path class="cls-8" d="M204.75,491.05c-.15,1.47,1,3.14-.67,4.37-.53-1.46-1.06-2.91-1.58-4.37Z" transform="translate(-128.03 -24.69)"/><path class="cls-9" d="M194.38,577.22A25.24,25.24,0,0,1,199.92,590c.11.87-.43,2.61,1.48,2.36,1.48-.2,1.86-1.29,1.85-2.73-.07-7.29-3.73-13-8-18.38-1.84-2.31-4-4.38-4.82-7.39,0-.83-.22-2.07,1.13-1.8,1.77.36,4,.5,4.57,2.64s2,3.34,3.67,4.48c.9.45.68,1.53,1.2,2.19,9.49,20.08,10.58,41.26,8.19,62.89-2.4-1.24-.14-3.67-1.32-5.22l-1.68-26.78c-.56-1.58-.12-3.22-.31-4.82-.08-.64-.29-1.4-.94-1.46-.93-.07-1.2.8-1.24,1.55a54.59,54.59,0,0,0,0,6q.75,16.62.69,33.25c0,4.74.64,9.45.41,14.19,0,1,.2,2.26-.86,2.67-1.33.52-1.93-.79-2.58-1.65-1.58-2.09-3.36-4-4.75-6.26a10,10,0,0,0-5-4.24c-3.06-1.22-3.62-3.69-1.78-6.44,1.44-1.14,3.13-2.12,3-4.36a109.91,109.91,0,0,1-.42-16.63c.85-10.79-.17-21.6,0-32.41C192.34,579.85,191.84,577.78,194.38,577.22Z" transform="translate(-128.03 -24.69)"/><path class="cls-10" d="M199.63,569.78c-2.16-.79-3.84-1.9-4.24-4.49-.3-2-3.59-2.78-5-1.42-2-2.9-2.33-6.3-3-9.6-.11-1-1.14-2.32.94-2.49,3.56-.26,5.28-2.15,5.12-5.74,0-1.22-.07-2.45-.1-3.67-1.53-11.49-.06-23,0-34.48a5.17,5.17,0,0,1,1-3.5c.77-.88,1.45-.77,2,.21h0c.38,3.35,2.52,6.07,3.27,9.32.37,1.58,1.72,1.27,2.45.09a3.16,3.16,0,0,0,.33-3.46c-.53-1.46-1-2.92-1.57-4.38.22-1.28.46-2.55,2.27-1.62,2.31,5.73,4.49,11.5,4.67,17.79.14.75.65,1.67-.79,1.68a20.82,20.82,0,0,1-.72-2.9c-.33-2.93-1.79-2.84-3.79-1.54-1.21,2.3-.28,4.66,0,6.93.85,7.72-.4,15.43.07,23.13h0c-1,1.88-.26,3.93-.51,5.88-.06,4.21.13,8.42-.15,13.36-3.43-2.33-4.06-6-6.2-8.48-1.59-1.25-1.54-4.4-4.59-4-.55,1.54-.82,3,.79,4.34-.21-1.57-1.72-2.83-.68-4.45,2.64-.2,2.67,2.58,4.19,3.67C197,563.17,200.14,565.68,199.63,569.78Z" transform="translate(-128.03 -24.69)"/><path class="cls-11" d="M208.37,524.83c2,12.23,2.6,24.44-.77,36.62v-6.32c-.53-9.69-.11-19.38-.22-29.07C207.38,525.39,207.52,524.78,208.37,524.83Z" transform="translate(-128.03 -24.69)"/><path class="cls-12" d="M202.6,549.64a8.28,8.28,0,0,1-.81-2.43c-.08-8.7-.08-17.4-.09-26.1a1.58,1.58,0,0,1,.86-1.53c-.39,3.29.83,6.4,1,9.63A86.27,86.27,0,0,1,202.6,549.64Z" transform="translate(-128.03 -24.69)"/><path class="cls-13" d="M195.75,559.28c2.49,2.35,3.48,5.68,6,9.38V555.78c.06-.33.25-.43.56-.35-.19,5.34,1.26,10.84-1.43,16l-1.25-1.65c-1.15-3.35-3.15-6.28-4.79-9.38C194.46,559.41,195,559.23,195.75,559.28Z" transform="translate(-128.03 -24.69)"/><path class="cls-14" d="M208.37,524.83c-1,1.18-.57,2.61-.59,3.92-.09,8.79-.13,17.58-.18,26.37-1.1-4.76-.41-9.6-.52-14.4-.12-5.57,0-11.13,0-16.7l.79-1.68A2.89,2.89,0,0,1,208.37,524.83Z" transform="translate(-128.03 -24.69)"/><path class="cls-12" d="M202.38,555.39l-.56.35c.05-2.07-.84-4.26.78-6.13C202.53,551.53,202.46,553.46,202.38,555.39Z" transform="translate(-128.03 -24.69)"/><path class="cls-15" d="M196.43,504.57c-1.42-.76-2,.38-1.9,1.27.4,2.38-.33,4.66-.36,7-.15,9.83-.53,19.67-.82,29.5a50.94,50.94,0,0,1-2-13.94c-.16-10.19,0-20.39,0-30.59.54-.44-.08-1.93,1.39-1.51A31.8,31.8,0,0,1,196.43,504.57Z" transform="translate(-128.03 -24.69)"/><path class="cls-16" d="M194.38,577.22c-1.35.93-1.23,2.5-1.16,3.72a261.27,261.27,0,0,1,0,30.91c-.35,6.28.09,12.56-.59,18.81a25.08,25.08,0,0,1-1.44-9.9c.88-15.84-.09-31.64-.72-47.82C192.69,573.84,193.55,575.52,194.38,577.22Z" transform="translate(-128.03 -24.69)"/><path class="cls-17" d="M188.33,551.78c-1,.57-.7,1.63-.94,2.49-2-4.54-2-9.36-1.87-14.19.12-3.58.37-7.16.56-10.75.67-1.53-.06-3.21.51-4.75l.26-1.93c2,1.55.78,3.54.76,5.37v20.14A22.09,22.09,0,0,0,188.33,551.78Z" transform="translate(-128.03 -24.69)"/><path class="cls-1" d="M202.49,510.55c1.54,1.86,1.35,3.61-.39,5.21-.8.72-2.11,1.29-2.47,0-1.08-3.72-3.58-7.06-3.19-11.19,1,2.06,2,4.15,3.15,6.18.36.66.28,1.93,1.47,1.73C202,512.35,202.31,511.42,202.49,510.55Z" transform="translate(-128.03 -24.69)"/><path class="cls-2" d="M187.61,528c-.69-1.73.54-3.73-.76-5.37-.07-1,.36-1.81,1.37-3.28C188.33,522.71,188.38,525.36,187.61,528Z" transform="translate(-128.03 -24.69)"/><path class="cls-3" d="M186.59,524.55c.15,1.62.58,3.27-.51,4.75A8.86,8.86,0,0,1,186.59,524.55Z" transform="translate(-128.03 -24.69)"/><path class="cls-4" d="M192.75,496.3l-1.42,1.48c0-1-.11-2.08-.17-3.18C192.4,494.78,192.59,495.49,192.75,496.3Z" transform="translate(-128.03 -24.69)"/><path class="cls-9" d="M191.25,556.26a16.32,16.32,0,0,0,2.5,5.52c-4.68-1-5.29-2.41-2.5-5.47Z" transform="translate(-128.03 -24.69)"/><path class="cls-18" d="M195.75,559.28l-.94,1.09-3.59-4.11h0c.28-1.37,1.13-1.25,1.82-.5A41.69,41.69,0,0,1,195.75,559.28Z" transform="translate(-128.03 -24.69)"/><path class="cls-5" d="M207,336.05c1.13,14.8,6.36,29,6.31,44,0,9.27-.21,18.48-2.46,27.52-.16.6-.35,1.19-.51,1.8-.91,3.55-4.58,6.45-4.4,9.61s3,6.16,3.69,9.61c3.57,16.68,6,33.44,2.66,50.48a46.15,46.15,0,0,1-3.74,11.32c-1.49,3.08-1,6.59-1.48,9.89-1.17,7.75,2.56,14.55,4.1,21.78.47,2.18,1.3,4.31,1.14,6.61-1.71,1.81-1.54-.35-2-1-.35-.47.68-2.57-1.29-1-2.66-2.71-1.8-6.63-3.37-9.72-.57-4.75-3.8-8.55-4.69-13.19.15-1.07.31-2.13,1.74-2.16,2.34,0,1.61-1.81,1.73-3,.51-4.75-.62-9.44-.67-14.17-.09-7.86,0-15.73,0-23.6,0-4.11.28-8.23-.61-12.31a13.18,13.18,0,0,1,0-4.85c.17-1,.42-2.09,1.72-2.06,1.09,0,1.37,1,1.53,1.85a28.61,28.61,0,0,0,.7,3.67c.48,8.72,2.07,17.36,1.77,26.12-.17,2.66-.48,5.31-.39,7.64a11.92,11.92,0,0,0,0-2.07,154,154,0,0,0-3.71-50.76c-1-4.19-3.64-7.64-4.54-11.81,1.93-5,1.06-10.22,1.24-15.35,0-1.94,0-3.88.19-5.81a7.79,7.79,0,0,1,.29-1.27c.68-8.48,1.83-17-.25-25.41a5.35,5.35,0,0,1,.43-4c3.19-2.09,4.29-1.74,4.86,1.68a18.31,18.31,0,0,1,.73,3.18c.81,10-.14,20.13.64,30.17a18.42,18.42,0,0,1-.39,6.19c1.53-11.75,1.09-23.48-.21-35.21a6.68,6.68,0,0,0-.42-3c-.72-6.14-3.11-11.81-5-17.64-1.06-3.52-1.77-7.13-3-10.61-.36-1-.74-2.12.1-3.14h3c1.57.9,2,2.43,2.23,4-.31.36.09-.16,0,.34v-.13c0-1.46-.56-3,.72-4.23Z" transform="translate(-128.03 -24.69)"/><path class="cls-5" d="M184,453.78c-.7-2.58,1.38-4.09,2.48-5.86a9.83,9.83,0,0,0,1.77-5.54,62.69,62.69,0,0,1,.29-8.22c1.47-11.55-1.58-22.38-4.69-33.38a58.71,58.71,0,0,1,3.95-42.18,14.13,14.13,0,0,0,1-6.1c.16-5.48.14-11,.19-16.45h3c3.13,1.44,4.57,4.33,6.08,7.14,1.33,2.49,2.08,5.25,3.51,7.7a15.67,15.67,0,0,1,1.55,4.75,2.2,2.2,0,0,1-1.82,2.45c-1.35.23-1.93-.89-2.48-1.86a36.66,36.66,0,0,1-2.66-5.72,10.39,10.39,0,0,1-.41-1c-1-2.59-2.46-5-3.57-7.48-.2.77.17,1.46.12,2.18q.27,12.68,0,25.31a82.45,82.45,0,0,0,1.9,17.3,14.42,14.42,0,0,1,0,6.27c-.81,3.27-2.87,4.48-6.28,3.8-2-3.67-1.71-7.72-1.51-11.63.18-3.73.2-7.45.28-11.17,0-1.89.84-3.68.75-5.6v-.17a8,8,0,0,1-.16,1.77,16.27,16.27,0,0,0-.58,4.6c.4,5.91-.87,11.79-.09,17.73a34,34,0,0,0,1.42,6.06c.87,3.42,1.32,7,3.11,10.1a28,28,0,0,0,4.65,6.81,38.15,38.15,0,0,1,7.47,12.87,14.11,14.11,0,0,1,.91,5.14c0,1.89,0,4.1-2.51,4.34s-2.68-2-2.94-3.63c-.69-4.46-2.85-8.2-5.34-11.81-.8-.91-1.71-2.24-1.77.35s.66,4.92.72,7.42c.18,7.45-.56,14.92.63,22.35.34,2.13-.55,4.17-.64,6.28a70.92,70.92,0,0,0,1.08,16.71c.26,3-1.44,4.49-4.07,5.26-2.81.14-3.52-1.9-3.95-4a42.67,42.67,0,0,1-.15-13.25c.2-1.83.38-3.67.6-5.49.1-1.1.79-2.06.87-3.16,0-.41.33-.84,0-1.25a2.55,2.55,0,0,1-.1,1.1,1.67,1.67,0,0,1-1.12,1C184.17,455.69,184.16,454.67,184,453.78Z" transform="translate(-128.03 -24.69)"/><path class="cls-6" d="M200.92,351.17c-2.9-5.09-4.69-10.83-8.94-15.12h7.5a111,111,0,0,1,3.71,13.5A13.39,13.39,0,0,1,200.92,351.17Z" transform="translate(-128.03 -24.69)"/><path class="cls-7" d="M205.48,336.05V343a3.17,3.17,0,0,1-1.42-2.55c.71-1.38-.81-3.1.67-4.37Z" transform="translate(-128.03 -24.69)"/><path class="cls-8" d="M204.75,336.05c-.15,1.47,1,3.14-.67,4.37-.53-1.46-1.06-2.91-1.58-4.37Z" transform="translate(-128.03 -24.69)"/><path class="cls-9" d="M194.38,422.22A25.24,25.24,0,0,1,199.92,435c.11.87-.43,2.61,1.48,2.36,1.48-.2,1.86-1.29,1.85-2.73-.07-7.29-3.73-13-8-18.38-1.84-2.31-4-4.38-4.82-7.39,0-.83-.22-2.07,1.13-1.8,1.77.36,4,.5,4.57,2.64s2,3.34,3.67,4.48c.9.45.68,1.53,1.2,2.19,9.49,20.08,10.58,41.26,8.19,62.89-2.4-1.24-.14-3.67-1.32-5.22l-1.68-26.78c-.56-1.58-.12-3.22-.31-4.82-.08-.64-.29-1.4-.94-1.46-.93-.07-1.2.8-1.24,1.55a54.59,54.59,0,0,0,0,6q.75,16.62.69,33.25c0,4.74.64,9.45.41,14.19,0,1,.2,2.26-.86,2.67-1.33.52-1.93-.79-2.58-1.65-1.58-2.09-3.36-4-4.75-6.26a10,10,0,0,0-5-4.24c-3.06-1.22-3.62-3.69-1.78-6.44,1.44-1.14,3.13-2.12,3-4.36a109.91,109.91,0,0,1-.42-16.63c.85-10.79-.17-21.6,0-32.41C192.34,424.85,191.84,422.78,194.38,422.22Z" transform="translate(-128.03 -24.69)"/><path class="cls-10" d="M199.63,414.78c-2.16-.79-3.84-1.9-4.24-4.49-.3-2-3.59-2.78-5-1.42-2-2.9-2.33-6.3-3-9.6-.11-1-1.14-2.32.94-2.49,3.56-.26,5.28-2.15,5.12-5.74,0-1.22-.07-2.45-.1-3.67-1.53-11.49-.06-23,0-34.48a5.17,5.17,0,0,1,1-3.5c.77-.88,1.45-.77,2,.21h0c.38,3.35,2.52,6.07,3.27,9.32.37,1.58,1.72,1.27,2.45.09a3.16,3.16,0,0,0,.33-3.46c-.53-1.46-1-2.92-1.57-4.38.22-1.28.46-2.55,2.27-1.62,2.31,5.73,4.49,11.5,4.67,17.79.14.75.65,1.67-.79,1.68a20.82,20.82,0,0,1-.72-2.9c-.33-2.93-1.79-2.84-3.79-1.54-1.21,2.3-.28,4.66,0,6.93.85,7.72-.4,15.43.07,23.13h0c-1,1.88-.26,3.93-.51,5.88-.06,4.21.13,8.42-.15,13.36-3.43-2.33-4.06-6-6.2-8.48-1.59-1.25-1.54-4.4-4.59-4-.55,1.54-.82,3,.79,4.34-.21-1.57-1.72-2.83-.68-4.45,2.64-.2,2.67,2.58,4.19,3.67C197,408.17,200.14,410.68,199.63,414.78Z" transform="translate(-128.03 -24.69)"/><path class="cls-19" d="M189.75,480c-.26,2.47-1.24,5.16,2.93,5.49,1.71.13,2.89,1.77,3.91,3.23,2.25,3.19,4.55,6.33,7.18,10,0-10,.42-19.38-.12-28.75-.56-9.6-.15-19.18-.38-28.77,0-1.38.76-2.78,2-2.7,1.55.09.86,1.79.9,2.78.09,2,0,4,0,6q-.56-2.69-1.1-5.38h-1.07c1,20.75,1,41.51,1.42,63.38l-3-3.43c-2-1.18-2.84-3.27-4-5.11a3,3,0,0,1-.42-.91c-.15.47.28.76.35,1.17,0,1.21.85,1.9,1.61,2.65a7.64,7.64,0,0,1,1.36,4.38c-1.3,2.33-2.56,1.5-3.27-.28s-2.08-2.73-2.69-4.35a1.86,1.86,0,0,0-2.29-1.32h0a4.29,4.29,0,0,1-2.46,0,8.28,8.28,0,0,1-1.69-4.37,12.55,12.55,0,0,0-1.45-4.61,51.19,51.19,0,0,1-3.83-25.67,3.13,3.13,0,0,1,.43,2.64c-.33-1.81.54-4.34.44-7l.94-3.68.56-.81c1.83.23.87,1.47.86,2.37-.55,6.86-1.8,13.69-.3,20.6C187,479.51,187.75,480.4,189.75,480Z" transform="translate(-128.03 -24.69)"/><path class="cls-11" d="M208.37,369.83c2,12.23,2.6,24.44-.77,36.62v-6.32c-.53-9.69-.11-19.38-.22-29.07C207.38,370.39,207.52,369.78,208.37,369.83Z" transform="translate(-128.03 -24.69)"/><path class="cls-12" d="M202.6,394.64a8.28,8.28,0,0,1-.81-2.43c0-8.7,0-17.43,0-26.1a1.58,1.58,0,0,1,.86-1.53c-.39,3.29.83,6.4,1,9.63A86.82,86.82,0,0,1,202.6,394.64Z" transform="translate(-128.03 -24.69)"/><path class="cls-13" d="M195.75,404.28c2.49,2.35,3.48,5.68,6,9.38V400.78c.06-.33.25-.43.56-.35-.19,5.34,1.26,10.84-1.43,16l-1.25-1.65c-1.15-3.35-3.15-6.28-4.79-9.38C194.46,404.41,195,404.23,195.75,404.28Z" transform="translate(-128.03 -24.69)"/><path class="cls-14" d="M208.37,369.83c-1,1.18-.57,2.61-.59,3.92-.09,8.79-.13,17.58-.18,26.37-1.1-4.76-.41-9.6-.52-14.4-.12-5.57,0-11.13,0-16.7l.79-1.68A2.89,2.89,0,0,1,208.37,369.83Z" transform="translate(-128.03 -24.69)"/><path class="cls-12" d="M202.38,400.39l-.56.35c.05-2.07-.84-4.26.78-6.13C202.54,396.53,202.46,398.46,202.38,400.39Z" transform="translate(-128.03 -24.69)"/><path class="cls-15" d="M196.43,349.57c-1.42-.76-2,.38-1.9,1.27.4,2.38-.33,4.66-.36,7-.15,9.83-.53,19.67-.82,29.5a50.94,50.94,0,0,1-2-13.94c-.16-10.19,0-20.39,0-30.59.54-.44-.08-1.93,1.39-1.51A31.8,31.8,0,0,1,196.43,349.57Z" transform="translate(-128.03 -24.69)"/><path class="cls-16" d="M194.38,422.22c-1.35.93-1.23,2.5-1.16,3.72a261.27,261.27,0,0,1,0,30.91c-.35,6.28.09,12.56-.59,18.81a25.08,25.08,0,0,1-1.44-9.9c.88-15.84-.09-31.64-.72-47.82C192.69,418.84,193.55,420.52,194.38,422.22Z" transform="translate(-128.03 -24.69)"/><path class="cls-17" d="M188.33,396.78c-1,.57-.7,1.63-.94,2.49-2-4.54-2-9.36-1.87-14.19.12-3.58.37-7.16.56-10.75.67-1.53-.06-3.21.51-4.75l.26-1.93c2,1.55.78,3.54.76,5.37v20.14A22.09,22.09,0,0,0,188.33,396.78Z" transform="translate(-128.03 -24.69)"/><path class="cls-1" d="M202.49,355.55c1.54,1.86,1.35,3.61-.39,5.21-.8.72-2.11,1.29-2.47,0-1.08-3.69-3.58-7-3.19-11.16,1,2.06,2,4.15,3.15,6.18.36.66.28,1.93,1.47,1.73C202,357.35,202.31,356.42,202.49,355.55Z" transform="translate(-128.03 -24.69)"/><path class="cls-2" d="M187.61,373c-.69-1.73.54-3.73-.76-5.37-.07-1,.36-1.81,1.37-3.28C188.33,367.71,188.38,370.36,187.61,373Z" transform="translate(-128.03 -24.69)"/><path class="cls-3" d="M186.59,369.55c.15,1.62.58,3.27-.51,4.75A8.86,8.86,0,0,1,186.59,369.55Z" transform="translate(-128.03 -24.69)"/><path class="cls-4" d="M192.75,341.3l-1.42,1.48c0-1-.11-2.08-.17-3.18C192.4,339.78,192.59,340.49,192.75,341.3Z" transform="translate(-128.03 -24.69)"/><path class="cls-9" d="M191.25,401.26a16.32,16.32,0,0,0,2.5,5.52c-4.68-1-5.29-2.41-2.5-5.47Z" transform="translate(-128.03 -24.69)"/><path class="cls-18" d="M195.75,404.28l-.94,1.09-3.56-4.11h0c.28-1.37,1.13-1.25,1.82-.5A41.33,41.33,0,0,1,195.75,404.28Z" transform="translate(-128.03 -24.69)"/><polygon points="61.23 470.73 60.63 455.98 64.69 453.8 62.57 473.34 61.23 470.73"/><path class="cls-20" d="M179.88,331.52a62.94,62.94,0,0,1,.92-13.21V311c0-3.67.93-8.08.93-11.75v-7.34c0-3.67.93-8.07.93-11.74V265.46a2.41,2.41,0,0,0-.93-2.21,64.08,64.08,0,0,1-9.26-5.87c-5.7-4.26-9.31-10-10.19-16.15a97.26,97.26,0,0,0-4.63-15.41c-1.85-5.14-2.78-9.55-4.63-14.68a62.46,62.46,0,0,0-12-19.09l-11.11-13.21c0-.73-.93-1.47-.93-2.2s1.85,0,1.85.73c2.78,1.47,5.56,3.67,8.34,5.14a80.09,80.09,0,0,1,9.26,6.61,36.59,36.59,0,0,1,13,14.68,109.76,109.76,0,0,0,6.49,15.41,110,110,0,0,0,8.33,17.62,45.33,45.33,0,0,0,8.34,9.54,19.66,19.66,0,0,0,9.26,3.67,48.2,48.2,0,0,0,10.19-.73,12.1,12.1,0,0,0,6.48-4.41,51,51,0,0,0,13-20.55A114.17,114.17,0,0,0,229.89,206a26.48,26.48,0,0,1,10.19-13.95c2.78-2.2,6.48-4.4,10.19-7.34a80.17,80.17,0,0,1,10.18-6.6,5.34,5.34,0,0,1,3.71-1.47h.92v.73c0,.74-.92,1.47-1.85,2.2-4.63,5.14-8.33,11-13,16.15A57.21,57.21,0,0,0,241,213.34,218.2,218.2,0,0,0,233.59,239c-.92,2.2-.92,5.14-1.85,7.34a23.16,23.16,0,0,1-6.48,9.54,65.22,65.22,0,0,1-12,8.81c-.93.74-.93.74-.93,1.47v3.67a24,24,0,0,0,.93,8.07c0,3.67.93,8.08.93,11.75a28.29,28.29,0,0,0,.92,8.81c0,4.4.93,8.07.93,12.48a28.81,28.81,0,0,0,.92,8.8c0,4.41.93,8.08.93,12.48v2.94c.32,2-1.26,3.87-3.7,4.4A22.31,22.31,0,0,1,204,341.8c-1.85,0-4.63.73-6.49.73h-5.55a34.07,34.07,0,0,1-9.26-1.47,7.73,7.73,0,0,1-3.71-1.47A13.54,13.54,0,0,0,179.88,331.52Z" transform="translate(-128.03 -24.69)"/><path class="cls-20" d="M197,206.73c11.05-.16,20.17,6.8,20.38,15.56v.59c0,8.92-9.13,16.15-20.38,16.15s-20.37-7.23-20.37-16.15S185.76,206.73,197,206.73Z" transform="translate(-128.03 -24.69)"/><path class="cls-21" d="M212.57,181c1.85-1.47,4.63-2.2,6.48-3.67q15.36-8.56,29.55-18.35a33.75,33.75,0,0,0,12-12.48c.92-2.2.92-4.4,1.85-5.87a5.29,5.29,0,0,1,1.85-2.94,8.82,8.82,0,0,1,.93,5.14c1.83,10.48-1.85,21.1-10.19,29.36a88.14,88.14,0,0,1-20.37,13.22,102.77,102.77,0,0,1-25.94,7.34h-4.63c-2.78,0-3.7-1.47-4.63-3.67a13.1,13.1,0,0,1-.92-5.88,47.56,47.56,0,0,1,3.7-19.82,43.25,43.25,0,0,1,13.89-16.14c5.56-4.41,12-8.81,18.53-13.22a40.45,40.45,0,0,0,14.81-16.88v-.73a.47.47,0,1,1,.93,0,19.28,19.28,0,0,1,7.41,11c.88,8.39-2.83,16.68-10.19,22.75-7.41,6.61-15.74,13.21-23.15,19.09-2.78,2.93-7.41,7.34-12,11.74Z" transform="translate(-128.03 -24.69)"/><path class="cls-22" d="M129.22,138.47a3.61,3.61,0,0,1,1.85,2.93c1.18,7.78,6.6,14.75,14.82,19.09,12,7.34,23.15,14.68,36.12,21.29h.92a40.61,40.61,0,0,0-6.48-5.88c-5.56-5.87-13-10.27-19.45-16.15L142.18,148c-5.84-5.24-8.84-12.1-8.33-19.09-.09-4.63,2.67-9,7.41-11.74.92-.73.92-.73,1.85.73a41.76,41.76,0,0,0,7.41,9.55,66,66,0,0,0,14.72,11,116.24,116.24,0,0,1,19.45,14.68,37.11,37.11,0,0,1,11.12,22,25.31,25.31,0,0,1,0,11.74,2.41,2.41,0,0,1-.93,2.21c-.56,2.09-2.85,3.61-5.56,3.67a40.86,40.86,0,0,1-9.26-1.47,84.48,84.48,0,0,1-35.19-14.68c-11.77-8-18-20-16.67-32.3A13,13,0,0,1,129.22,138.47Z" transform="translate(-128.03 -24.69)"/><path class="cls-23" d="M185.71,115.71c.93.74,2.78,1.47,3.71,2.2a37.26,37.26,0,0,0,13,4.41,26.33,26.33,0,0,0,16.67-3.67l.93-.74v-.73a14.43,14.43,0,0,1-5.56.73A27.33,27.33,0,0,1,195.9,112a5,5,0,0,1-1.85-3.67,18.44,18.44,0,0,1,6.48-10.28c1.85-1.46,1.85-1.46,3.71,0a38.67,38.67,0,0,0,6.48,4.41,17.39,17.39,0,0,0,14.82,0,17,17,0,0,0,8.33-6.61c.93-.73.93-.73,1.85,0a20.8,20.8,0,0,1,.93,25c-4.75,7.78-14.25,13.06-25.1,14a33.37,33.37,0,0,1-12,0c-6.66-1.14-12-5.09-13.89-10.28a28.54,28.54,0,0,1-.93-8.81c0,.74,0,.74.93,0C184.79,116.45,185.71,116.45,185.71,115.71Z" transform="translate(-128.03 -24.69)"/><path class="cls-24" d="M207,27.63a35.34,35.34,0,0,1,13,8.07,30,30,0,0,1,9.26,11,21,21,0,0,1-1.85,22A54.51,54.51,0,0,1,218.13,79c-8.34,8.07-17.6,16.15-26.86,23.49a30,30,0,0,0-11.11,16.88A26.08,26.08,0,0,0,182,134.06v.74c-2.78-.74-4.63-1.47-7.41-2.21a43.89,43.89,0,0,1-16.67-9.54,16.34,16.34,0,0,1-5.56-12.48A15.48,15.48,0,0,1,157,100.3,53,53,0,0,1,170,90L200.53,72.4a113.11,113.11,0,0,0,15.75-11.74c4.28-4.71,5-10.9,1.85-16.15A2.17,2.17,0,0,0,217.2,43c0,.74-.92,1.47-.92,2.2a42,42,0,0,1-8.34,13.22,140,140,0,0,1-12,8.81,238.06,238.06,0,0,1-31.49,15.41c-1.85.73-2.78,1.47-4.63,1.47h-1.85c-.93,0-1.85,0-1.85-.74s0-1.46.92-1.46a98.3,98.3,0,0,0,10.19-8.08c7.41-5.87,15.74-11.74,24.08-17.62a35.56,35.56,0,0,0,13-17.61,19.35,19.35,0,0,0-.93-12.48c0-.73,0-1.47.93-1.47C206.09,27.63,207,27.63,207,27.63Z" transform="translate(-128.03 -24.69)"/></svg>